<?xml version="1.0" encoding="UTF-8"?>
<svg id="Layer_1" data-name="Layer 1" xmlns="http://www.w3.org/2000/svg" viewBox="0 0 369 126">
  <defs>
    <style>
      .cls-1 {
        fill: #f8f4ee;
      }

      .cls-2 {
        fill: #c02026;
      }
    </style>
  </defs>
  <path class="cls-1" d="M10.88,95.55h-6.45s0-8.07,0-8.07h27.15s0,8.07,0,8.07h-6.45c-1.31,0-2.38,1.06-2.38,2.38v24.87s-9.49,0-9.49,0v-24.87c0-1.31-1.06-2.38-2.38-2.38Z"/>
  <path class="cls-1" d="M65.22,122.8h-9.59s-6-11.81-6-11.81h-3.89v11.81s-9.49,0-9.49,0v-35.32s20.69,0,20.69,0c4.64,0,6.86,2.22,6.86,6.86v9.18c0,3.89-1.56,6.05-4.79,6.71l6.21,12.56ZM53.42,103.53c.71,0,.91-.2.91-.91v-6.56c0-.71-.2-.91-.91-.91h-7.67v8.38h7.67Z"/>
  <path class="cls-1" d="M69.08,115.94v-28.46s9.49,0,9.49,0v26.24c0,.61.3.91.91.91h6.56c.61,0,.91-.3.91-.91v-26.24s9.49,0,9.49,0v28.46c0,4.44-2.42,6.86-6.86,6.86h-13.62c-4.44,0-6.86-2.42-6.86-6.86Z"/>
  <path class="cls-1" d="M102.48,115.94v-21.6c0-4.64,2.32-6.86,6.96-6.86h13.47c4.64,0,6.76,2.22,6.76,6.86v6.61s-9.49,0-9.49,0v-4.69c0-.71-.2-.91-.91-.91h-6.41c-.71,0-.91.2-.91.91v17.76c0,.71.2.91.91.91h6.41c.71,0,.91-.2.91-.91v-4.69s9.49,0,9.49,0v6.61c0,4.64-2.22,6.86-6.86,6.86h-13.47c-4.64,0-6.86-2.22-6.86-6.86Z"/>
  <path class="cls-1" d="M155.31,122.8l-6-13.82-5.1,7.06v6.76s-9.28,0-9.28,0v-35.32s9.28,0,9.28,0v16.1s10.24-16.1,10.24-16.1h10.34s-8.28,11.51-8.28,11.51c-.87,1.21-1.02,2.79-.39,4.14l9.17,19.66h-9.99Z"/>
  <path class="cls-1" d="M178.74,115.94v-21.6c0-4.64,2.32-6.86,6.96-6.86h13.47c4.64,0,6.76,2.22,6.76,6.86v6.61s-9.49,0-9.49,0v-4.69c0-.71-.2-.91-.91-.91h-6.41c-.71,0-.91.2-.91.91v17.76c0,.71.2.91.91.91h6.41c.71,0,.91-.2.91-.91v-4.69s9.49,0,9.49,0v6.61c0,4.64-2.22,6.86-6.86,6.86h-13.47c-4.64,0-6.86-2.22-6.86-6.86Z"/>
  <path class="cls-1" d="M210.77,87.48h24.82s0,7.87,0,7.87h-15.34v5.5h12.16s0,7.77,0,7.77h-12.16v6.31h15.34s0,7.87,0,7.87h-24.82s0-35.32,0-35.32Z"/>
  <path class="cls-1" d="M240.08,87.48h9.43s11.55,18.77,11.55,18.77v-18.77s9.18,0,9.18,0v35.32s-8.43,0-8.43,0l-12.56-20.23v20.23s-9.18,0-9.18,0v-35.32Z"/>
  <path class="cls-1" d="M281.14,95.55h-6.45s0-8.07,0-8.07h27.15s0,8.07,0,8.07h-6.45c-1.31,0-2.38,1.06-2.38,2.38v24.87s-9.49,0-9.49,0v-24.87c0-1.31-1.06-2.38-2.38-2.38Z"/>
  <path class="cls-1" d="M306.24,87.48h24.82s0,7.87,0,7.87h-15.34v5.5h12.16s0,7.77,0,7.77h-12.16v6.31h15.34s0,7.87,0,7.87h-24.82s0-35.32,0-35.32Z"/>
  <path class="cls-1" d="M364.66,122.8h-9.59s-6-11.81-6-11.81h-3.89v11.81s-9.49,0-9.49,0v-35.32s20.69,0,20.69,0c4.64,0,6.86,2.22,6.86,6.86v9.18c0,3.89-1.56,6.05-4.79,6.71l6.21,12.56ZM352.85,103.53c.71,0,.91-.2.91-.91v-6.56c0-.71-.2-.91-.91-.91h-7.67v8.38h7.67Z"/>
  <path class="cls-1" d="M147.1,14.23v32.02h10.37c.58,0,1.05.47,1.05,1.05v9.13c0,.58-.47,1.05-1.04,1.05h-31.82c-.58,0-1.05-.48-1.05-1.05v-9.13c0-.58.47-1.05,1.05-1.05h10.36V14.21l-10.75-.04-.12-.06c-.34-.17-.55-.53-.55-.91V4.06c0-.58.47-1.05,1.05-1.05h31.81c.58,0,1.05.47,1.05,1.05v9.13c0,.57-.47,1.04-1.04,1.04h-10.38Z"/>
  <path class="cls-1" d="M244.13,25.8c.36-.22.57-.62.57-1.04V4.06c0-.57-.48-1.05-1.05-1.05h-31.81c-.57,0-1.05.48-1.05,1.05v20.7c0,.43.21.82.57,1.04,1.45.94,2.41,2.56,2.41,4.42s-.97,3.5-2.41,4.42c-.36.22-.57.62-.57,1.04v20.75c0,.58.48,1.05,1.05,1.05h31.82c.57,0,1.04-.47,1.04-1.04v-20.76c0-.43-.21-.82-.57-1.04-1.45-.92-2.41-2.56-2.41-4.42s.97-3.49,2.41-4.42ZM233.71,46.52h-11.94v-10.71h11.94v10.71ZM233.71,24.84h-11.94v-10.7h11.94v10.7Z"/>
  <path class="cls-1" d="M184.65,3.03v11.25l-17.72-.04c-.57,0-1.04-.47-1.04-1.05V4.05c0-.57.47-1.04,1.04-1.04l17.72.02Z"/>
  <path class="cls-2" d="M202.38,3.06l-13.54-.03v13.92c.02.18.02.35,0,.53-.05.64-.32,1.28-.84,1.81l-21.77,22.33c-.19.2-.3.47-.3.73v15.2l37.19-38.27c.19-.2.3-.46.3-.73V4.1c0-.57-.48-1.04-1.04-1.04ZM196.21,14.18c-1.72,0-3.12-1.39-3.12-3.12s1.4-3.13,3.12-3.13,3.13,1.4,3.13,3.13-1.4,3.12-3.13,3.12Z"/>
  <path class="cls-2" d="M203.41,40.75v15.54c0,.28-.11.55-.31.74l-17.71,17.97c-.2.2-.47.31-.73.31s-.54-.1-.74-.31l-15.3-14.86,7.82-8.04,6.95,6.61c.74.7,1.9.68,2.6-.05l17.42-17.92Z"/>
  <path class="cls-1" d="M171.29,24.84l-10.19,10.45c-.33.34-.78.52-1.24.52h-4.72v-10.97h16.16Z"/>
  <g>
    <path class="cls-2" d="M73.48,26.3h6.16v1.69h-4.23v1.43h3.99v1.55h-3.99v1.52h4.29v1.69h-6.22v-7.88Z"/>
    <path class="cls-2" d="M84.95,31.19l-1.73-.26c-1.42-.19-2.13-1.09-2.13-2.21v-.28c0-1.48,1.22-2.3,3.31-2.3s3.23.83,3.29,2.62h-1.88v-.18c-.05-.56-.45-.86-1.41-.86-1.05,0-1.43.28-1.43.71v.11c0,.39.28.6.89.69l1.73.24c1.64.23,2.32,1,2.32,2.17v.34c0,1.48-1.2,2.35-3.36,2.35-2.36,0-3.56-.78-3.61-2.76h1.91v.18c.07.73.65.98,1.7.98.99,0,1.42-.26,1.42-.73v-.11c0-.42-.24-.6-1.02-.71Z"/>
    <path class="cls-2" d="M91.32,27.99h-2.5v-1.69h6.94v1.69h-2.5v6.19h-1.94v-6.19Z"/>
    <path class="cls-2" d="M96.97,26.3h4.26c1.42,0,2.64.53,2.64,1.87v.48c0,.73-.54,1.34-1.36,1.45v.09c1.11.19,1.59.8,1.59,1.62v.52c0,1.51-1.37,1.85-2.74,1.85h-4.38v-7.88ZM101.15,29.47c.47,0,.73-.28.73-.64v-.24c0-.41-.25-.64-.72-.64h-2.26v1.52h2.25ZM101.34,32.54c.47,0,.72-.29.72-.7v-.2c0-.41-.25-.7-.72-.7h-2.44v1.6h2.44Z"/>
  </g>
  <g>
    <path class="cls-2" d="M269.69,27.8c-.8,0-1.23.27-1.27.98v.18h-1.88c.03-1.95,1.22-2.82,3.23-2.82s2.98.84,2.98,2.23v.18c0,1.06-.55,1.68-1.48,2.38l-1.88,1.46v.1h3.45v1.69h-6.39v-1.6l3.33-2.59c.78-.6,1.01-.88,1.01-1.32v-.18c0-.44-.35-.7-1.11-.7Z"/>
    <path class="cls-2" d="M277.52,26.15c1.69,0,3.39.91,3.39,3.62v.97c0,2.7-1.7,3.62-3.39,3.62s-3.4-.91-3.4-3.62v-.97c0-2.7,1.71-3.62,3.4-3.62ZM277.52,32.64c.91,0,1.36-.42,1.36-1.84v-1.13c0-1.42-.45-1.84-1.36-1.84s-1.37.42-1.37,1.84v1.13c0,1.42.46,1.84,1.37,1.84Z"/>
    <path class="cls-2" d="M282.33,32.5h1.95v-4.11h-.1c-.15.42-.46.53-.83.53h-.9v-1.69h.9c.66,0,.93-.26.93-.92h1.93v6.19h1.94v1.69h-5.81v-1.69Z"/>
    <path class="cls-2" d="M292.68,27.8c-.8,0-1.23.27-1.27.98v.18h-1.88c.03-1.95,1.22-2.82,3.23-2.82s2.98.84,2.98,2.23v.18c0,1.06-.55,1.68-1.48,2.38l-1.88,1.46v.1h3.45v1.69h-6.39v-1.6l3.33-2.59c.78-.6,1.01-.88,1.01-1.32v-.18c0-.44-.35-.7-1.11-.7Z"/>
  </g>
</svg>