<?xml version="1.0" encoding="UTF-8"?>
<svg id="Layer_1" data-name="Layer 1" xmlns="http://www.w3.org/2000/svg" viewBox="0 0 369 108">
  <defs>
    <style>
      .cls-1 {
        fill: #fff;
      }
    </style>
  </defs>
  <g>
    <g>
      <path class="cls-1" d="M196.94,11.72h-6.14s0-7.68,0-7.68h25.83s0,7.68,0,7.68h-6.14c-1.25,0-2.26,1.01-2.26,2.26v23.66s-9.02,0-9.02,0V13.98c0-1.25-1.01-2.26-2.26-2.26Z"/>
      <path class="cls-1" d="M247.32,37.64h-9.12s-5.71-11.23-5.71-11.23h-3.7v11.23s-9.02,0-9.02,0V4.04s19.68,0,19.68,0c4.42,0,6.53,2.11,6.53,6.53v8.74c0,3.7-1.49,5.76-4.56,6.38l5.9,11.95ZM236.09,19.3c.67,0,.86-.19.86-.86v-6.24c0-.67-.19-.86-.86-.86h-7.3v7.97h7.3Z"/>
      <path class="cls-1" d="M250.99,31.11V4.04s9.02,0,9.02,0v24.96c0,.58.29.86.86.86h6.24c.58,0,.86-.29.86-.86V4.04s9.02,0,9.02,0v27.07c0,4.22-2.3,6.53-6.53,6.53h-12.96c-4.22,0-6.53-2.3-6.53-6.53Z"/>
      <path class="cls-1" d="M282.77,31.11V10.57c0-4.42,2.21-6.53,6.62-6.53h12.82c4.42,0,6.43,2.11,6.43,6.53v6.29s-9.02,0-9.02,0v-4.46c0-.67-.19-.86-.86-.86h-6.1c-.67,0-.86.19-.86.86v16.9c0,.67.19.86.86.86h6.1c.67,0,.86-.19.86-.86v-4.46s9.02,0,9.02,0v6.29c0,4.42-2.11,6.53-6.53,6.53h-12.82c-4.42,0-6.53-2.11-6.53-6.53Z"/>
      <path class="cls-1" d="M333.03,37.64l-5.71-13.15-4.85,6.72v6.43s-8.83,0-8.83,0V4.04s8.83,0,8.83,0v15.31s9.74-15.31,9.74-15.31h9.84s-7.88,10.95-7.88,10.95c-.83,1.15-.97,2.66-.37,3.94l8.73,18.7h-9.5Z"/>
    </g>
    <g>
      <path class="cls-1" d="M190.8,72.89v-20.54c0-4.42,2.21-6.53,6.62-6.53h12.82c4.42,0,6.43,2.11,6.43,6.53v6.29s-9.02,0-9.02,0v-4.46c0-.67-.19-.86-.86-.86h-6.1c-.67,0-.86.19-.86.86v16.9c0,.67.19.86.86.86h6.1c.67,0,.86-.19.86-.86v-4.46s9.02,0,9.02,0v6.29c0,4.42-2.11,6.53-6.53,6.53h-12.82c-4.42,0-6.53-2.11-6.53-6.53Z"/>
      <path class="cls-1" d="M221.27,45.82h23.62s0,7.49,0,7.49h-14.59v5.23h11.57s0,7.39,0,7.39h-11.57v6h14.59s0,7.49,0,7.49h-23.62s0-33.6,0-33.6Z"/>
      <path class="cls-1" d="M249.16,45.82h8.98s10.99,17.86,10.99,17.86v-17.86s8.74,0,8.74,0v33.6s-8.02,0-8.02,0l-11.95-19.25v19.25s-8.74,0-8.74,0v-33.6Z"/>
      <path class="cls-1" d="M286.9,53.5h-6.14s0-7.68,0-7.68h25.83s0,7.68,0,7.68h-6.14c-1.25,0-2.26,1.01-2.26,2.26v23.66s-9.02,0-9.02,0v-23.66c0-1.25-1.01-2.26-2.26-2.26Z"/>
      <path class="cls-1" d="M309.46,45.82h23.62s0,7.49,0,7.49h-14.59v5.23h11.57s0,7.39,0,7.39h-11.57v6h14.59s0,7.49,0,7.49h-23.62s0-33.6,0-33.6Z"/>
      <path class="cls-1" d="M365.04,79.42h-9.12s-5.71-11.23-5.71-11.23h-3.7v11.23s-9.02,0-9.02,0v-33.6s19.68,0,19.68,0c4.42,0,6.53,2.11,6.53,6.53v8.74c0,3.7-1.49,5.76-4.56,6.38l5.9,11.95ZM353.8,61.09c.67,0,.86-.19.86-.86v-6.24c0-.67-.19-.86-.86-.86h-7.3v7.97h7.3Z"/>
    </g>
  </g>
  <g>
    <path class="cls-1" d="M35.35,19.55v44.25h14.33c.81,0,1.45.65,1.45,1.45v12.62c0,.81-.65,1.45-1.44,1.45H5.73c-.81,0-1.45-.66-1.45-1.45v-12.62c0-.81.65-1.45,1.45-1.45h14.32V19.52l-14.85-.06-.16-.09c-.47-.24-.76-.73-.76-1.26V5.49c0-.81.65-1.45,1.45-1.45h43.96c.81,0,1.45.65,1.45,1.45v12.62c0,.79-.65,1.44-1.44,1.44h-14.35Z"/>
    <path class="cls-1" d="M169.44,35.54c.5-.31.79-.85.79-1.44V5.49c0-.79-.66-1.45-1.45-1.45h-43.96c-.79,0-1.45.66-1.45,1.45v28.61c0,.59.29,1.13.79,1.44,2,1.29,3.33,3.54,3.33,6.11s-1.34,4.83-3.33,6.11c-.5.31-.79.85-.79,1.44v28.67c0,.81.66,1.45,1.45,1.45h43.97c.79,0,1.44-.65,1.44-1.44v-28.68c0-.59-.29-1.13-.79-1.44-2-1.28-3.33-3.54-3.33-6.11s1.34-4.82,3.33-6.11ZM155.04,64.17h-16.49v-14.8h16.49v14.8ZM155.04,34.21h-16.49v-14.79h16.49v14.79Z"/>
    <g>
      <path class="cls-1" d="M87.25,4.07v15.54l-24.48-.06c-.79,0-1.44-.65-1.44-1.45V5.48c0-.79.65-1.44,1.44-1.44l24.48.03Z"/>
      <path class="cls-1" d="M111.74,4.12l-18.72-.04v19.24c.02.24.02.49,0,.73-.07.89-.44,1.77-1.16,2.5l-30.08,30.85c-.27.28-.41.65-.41,1.01v21.01l51.39-52.88c.27-.28.41-.63.41-1.01V5.56c0-.79-.66-1.44-1.44-1.44ZM103.21,19.49c-2.38,0-4.31-1.92-4.31-4.31s1.94-4.33,4.31-4.33,4.33,1.94,4.33,4.33-1.94,4.31-4.33,4.31Z"/>
      <path class="cls-1" d="M113.17,56.2v21.48c0,.39-.15.76-.43,1.03l-24.47,24.83c-.27.28-.65.42-1.01.42s-.74-.14-1.02-.42l-21.15-20.54,10.81-11.11,9.6,9.13c1.02.97,2.62.93,3.6-.07l24.07-24.76Z"/>
    </g>
    <path class="cls-1" d="M68.78,34.21l-14.09,14.44c-.46.47-1.07.72-1.72.72h-6.52v-15.16h22.32Z"/>
  </g>
</svg>