<?xml version="1.0" encoding="UTF-8"?>
<svg id="Layer_1" data-name="Layer 1" xmlns="http://www.w3.org/2000/svg" viewBox="0 0 369 117">
  <defs>
    <style>
      .cls-1 {
        fill: #231f20;
      }
    </style>
  </defs>
  <g>
    <g>
      <path class="cls-1" d="M10.76,41.24h-3.83v-2.59h10.63v2.59h-3.83v9.49h-2.97v-9.49Z"/>
      <path class="cls-1" d="M19.42,38.65h6.47c2.17,0,4.24.69,4.24,3.17v.81c0,1.45-.76,2.31-2.16,2.48v.16c1.21.16,1.97.71,1.97,2.16v.97c0,.6,0,1.47.17,2.33h-2.97c-.17-.86-.17-1.59-.17-2.07v-.71c0-.93-.35-1.28-1.28-1.28h-3.33v4.05h-2.95v-12.08ZM25.79,44.08c.85,0,1.24-.43,1.24-1.14v-.6c0-.67-.4-1.1-1.24-1.1h-3.42v2.85h3.42Z"/>
      <path class="cls-1" d="M40.56,45.86h2.98c0,3.42-2.17,5.11-5.45,5.11-3.02,0-5.83-1.74-5.83-5.88v-.79c0-4.14,2.81-5.88,5.83-5.88,3.28,0,5.45,1.71,5.45,4.93h-2.98l-.02-.29c-.09-1.14-.78-2.04-2.45-2.04-1.9,0-2.73.95-2.73,2.95v1.45c0,2,.83,2.95,2.73,2.95,1.67,0,2.36-.88,2.45-2.21l.02-.29Z"/>
      <path class="cls-1" d="M48.96,50.72h-2.95v-12.08h2.95v5.09h.16l4.59-5.09h3.59l-4.49,4.97v.16l4.73,6.95h-3.5l-3.19-4.73h-.14l-1.74,1.93v2.79Z"/>
    </g>
    <g>
      <path class="cls-1" d="M320.59,45.86h2.98c0,3.42-2.17,5.11-5.45,5.11-3.02,0-5.83-1.74-5.83-5.88v-.79c0-4.14,2.81-5.88,5.83-5.88,3.28,0,5.45,1.71,5.45,4.93h-2.98l-.02-.29c-.09-1.14-.78-2.04-2.45-2.04-1.9,0-2.73.95-2.73,2.95v1.45c0,2,.83,2.95,2.73,2.95,1.67,0,2.36-.88,2.45-2.21l.02-.29Z"/>
      <path class="cls-1" d="M326.04,38.65h3.38l4.78,7.52h.16v-7.52h2.95v12.08h-3.38l-4.78-7.52h-.16v7.52h-2.95v-12.08Z"/>
      <path class="cls-1" d="M343.01,41.24h-3.83v-2.59h10.63v2.59h-3.83v9.49h-2.97v-9.49Z"/>
      <path class="cls-1" d="M351.67,38.65h6.47c2.17,0,4.24.69,4.24,3.17v.81c0,1.45-.76,2.31-2.16,2.48v.16c1.21.16,1.97.71,1.97,2.16v.97c0,.6,0,1.47.17,2.33h-2.97c-.17-.86-.17-1.59-.17-2.07v-.71c0-.93-.35-1.28-1.28-1.28h-3.33v4.05h-2.95v-12.08ZM358.03,44.08c.85,0,1.24-.43,1.24-1.14v-.6c0-.67-.4-1.1-1.24-1.1h-3.42v2.85h3.42Z"/>
    </g>
  </g>
  <g>
    <path class="cls-1" d="M127.12,20.31v49.06h15.89c.9,0,1.61.72,1.61,1.61v13.99c0,.9-.72,1.61-1.6,1.61h-48.75c-.9,0-1.61-.73-1.61-1.61v-13.99c0-.9.72-1.61,1.61-1.61h15.88V20.27l-16.46-.07-.18-.1c-.52-.26-.85-.81-.85-1.4V4.72c0-.9.72-1.61,1.61-1.61h48.74c.9,0,1.61.72,1.61,1.61v13.99c0,.88-.72,1.6-1.6,1.6h-15.91Z"/>
    <path class="cls-1" d="M275.77,38.04c.55-.34.88-.94.88-1.6V4.72c0-.88-.73-1.61-1.61-1.61h-48.74c-.88,0-1.61.73-1.61,1.61v31.72c0,.65.33,1.25.88,1.6,2.21,1.43,3.7,3.92,3.7,6.77s-1.48,5.36-3.7,6.77c-.55.34-.88.94-.88,1.6v31.78c0,.9.73,1.61,1.61,1.61h48.75c.88,0,1.6-.72,1.6-1.6v-31.8c0-.65-.33-1.25-.88-1.6-2.21-1.42-3.7-3.92-3.7-6.77s1.48-5.34,3.7-6.77ZM259.81,69.77h-18.29v-16.41h18.29v16.41ZM259.81,36.56h-18.29v-16.4h18.29v16.4Z"/>
    <g>
      <path class="cls-1" d="M184.65,3.14v17.23l-27.14-.07c-.88,0-1.6-.72-1.6-1.61V4.71c0-.88.72-1.6,1.6-1.6l27.14.03Z"/>
      <path class="cls-1" d="M211.81,3.2l-20.75-.04v21.33c.03.27.03.54,0,.81-.08.99-.49,1.96-1.28,2.77l-33.35,34.2c-.3.31-.46.72-.46,1.12v23.29l56.98-58.63c.3-.31.46-.7.46-1.12V4.8c0-.88-.73-1.59-1.59-1.59ZM202.35,20.24c-2.63,0-4.78-2.13-4.78-4.78s2.15-4.8,4.78-4.8,4.8,2.15,4.8,4.8-2.15,4.78-4.8,4.78Z"/>
      <path class="cls-1" d="M213.39,60.94v23.81c0,.43-.17.84-.48,1.14l-27.13,27.53c-.3.31-.72.47-1.12.47s-.82-.16-1.13-.47l-23.45-22.77,11.98-12.31,10.65,10.12c1.13,1.07,2.9,1.04,3.99-.08l26.69-27.45Z"/>
    </g>
    <path class="cls-1" d="M164.18,36.56l-15.62,16.01c-.5.52-1.19.8-1.91.8h-7.23v-16.8h24.75Z"/>
  </g>
</svg>