<?xml version="1.0" encoding="UTF-8"?>
<svg id="Layer_1" data-name="Layer 1" xmlns="http://www.w3.org/2000/svg" xmlns:xlink="http://www.w3.org/1999/xlink" viewBox="0 0 1072.17 489.81">
  <defs>
    <style>
      .cls-1 {
        fill: none;
      }

      .cls-2 {
        fill: #e73525;
      }

      .cls-3 {
        fill: #d9d1c8;
      }

      .cls-4 {
        fill: #282020;
      }

      .cls-5 {
        clip-path: url(#clippath-1);
      }

      .cls-6 {
        clip-path: url(#clippath-3);
      }

      .cls-7 {
        clip-path: url(#clippath-2);
      }

      .cls-8 {
        fill: #123c5f;
      }

      .cls-9 {
        clip-path: url(#clippath);
      }
    </style>
    <clipPath id="clippath">
      <rect class="cls-1" y="-553.31" width="1072.17" height="489.81"/>
    </clipPath>
    <clipPath id="clippath-1">
      <rect class="cls-1" x="1141.89" y="-553.31" width="1072.17" height="489.81"/>
    </clipPath>
    <clipPath id="clippath-2">
      <rect class="cls-1" width="1072.17" height="489.81"/>
    </clipPath>
    <clipPath id="clippath-3">
      <rect class="cls-1" x="1141.89" width="1072.17" height="489.81"/>
    </clipPath>
  </defs>
  <g class="cls-9">
    <polygon class="cls-8" points="685 -560.07 104.04 37.24 155.18 37.24 736.14 -560.07 685 -560.07"/>
    <polygon class="cls-8" points="754.02 -560.07 173.05 37.24 224.19 37.24 805.15 -560.07 754.02 -560.07"/>
    <polygon class="cls-8" points="615.22 -560.07 34.25 37.24 85.39 37.24 666.35 -560.07 615.22 -560.07"/>
    <polygon class="cls-8" points="478.06 -560.07 -102.91 37.24 -51.77 37.24 529.19 -560.07 478.06 -560.07"/>
    <polygon class="cls-8" points="547.07 -560.07 -33.89 37.24 17.24 37.24 598.21 -560.07 547.07 -560.07"/>
    <polygon class="cls-8" points="408.27 -560.07 -172.69 37.24 -121.56 37.24 459.41 -560.07 408.27 -560.07"/>
    <polygon class="cls-8" points="271.11 -560.07 -309.85 37.24 -258.72 37.24 322.25 -560.07 271.11 -560.07"/>
    <polygon class="cls-8" points="340.12 -560.07 -240.84 37.24 -189.7 37.24 391.26 -560.07 340.12 -560.07"/>
    <polygon class="cls-8" points="201.32 -560.07 -379.64 37.24 -328.5 37.24 252.46 -560.07 201.32 -560.07"/>
    <polygon class="cls-8" points="64.16 -560.07 -516.8 37.24 -465.66 37.24 115.3 -560.07 64.16 -560.07"/>
    <polygon class="cls-8" points="133.17 -560.07 -447.79 37.24 -396.65 37.24 184.31 -560.07 133.17 -560.07"/>
    <polygon class="cls-8" points="-5.62 -560.07 -586.59 37.24 -535.45 37.24 45.51 -560.07 -5.62 -560.07"/>
    <polygon class="cls-8" points="1444.64 -560.07 863.68 37.24 914.82 37.24 1495.78 -560.07 1444.64 -560.07"/>
    <polygon class="cls-8" points="1513.65 -560.07 932.69 37.24 983.83 37.24 1564.79 -560.07 1513.65 -560.07"/>
    <polygon class="cls-8" points="1374.85 -560.07 793.89 37.24 845.03 37.24 1425.99 -560.07 1374.85 -560.07"/>
    <polygon class="cls-8" points="1237.69 -560.07 656.73 37.24 707.87 37.24 1288.83 -560.07 1237.69 -560.07"/>
    <polygon class="cls-8" points="1306.71 -560.07 725.74 37.24 776.88 37.24 1357.85 -560.07 1306.71 -560.07"/>
    <polygon class="cls-8" points="1167.91 -560.07 586.94 37.24 638.08 37.24 1219.05 -560.07 1167.91 -560.07"/>
    <polygon class="cls-8" points="1030.75 -560.07 449.78 37.24 500.92 37.24 1081.89 -560.07 1030.75 -560.07"/>
    <polygon class="cls-8" points="1099.76 -560.07 518.8 37.24 569.94 37.24 1150.9 -560.07 1099.76 -560.07"/>
    <polygon class="cls-8" points="960.96 -560.07 380 37.24 431.13 37.24 1012.1 -560.07 960.96 -560.07"/>
    <polygon class="cls-8" points="823.8 -560.07 242.84 37.24 293.98 37.24 874.94 -560.07 823.8 -560.07"/>
    <polygon class="cls-8" points="892.81 -560.07 311.85 37.24 362.99 37.24 943.95 -560.07 892.81 -560.07"/>
  </g>
  <g class="cls-5">
    <polygon class="cls-2" points="1619.94 -560.07 1038.98 37.24 1090.12 37.24 1671.08 -560.07 1619.94 -560.07"/>
    <polygon class="cls-2" points="1550.15 -560.07 969.19 37.24 1020.33 37.24 1601.29 -560.07 1550.15 -560.07"/>
    <polygon class="cls-2" points="1413 -560.07 832.03 37.24 883.17 37.24 1464.13 -560.07 1413 -560.07"/>
    <polygon class="cls-2" points="1482.01 -560.07 901.04 37.24 952.18 37.24 1533.15 -560.07 1482.01 -560.07"/>
    <polygon class="cls-2" points="1343.21 -560.07 762.24 37.24 813.38 37.24 1394.35 -560.07 1343.21 -560.07"/>
    <polygon class="cls-2" points="1206.05 -560.07 625.08 37.24 676.22 37.24 1257.19 -560.07 1206.05 -560.07"/>
    <polygon class="cls-2" points="1275.06 -560.07 694.1 37.24 745.24 37.24 1326.2 -560.07 1275.06 -560.07"/>
    <polygon class="cls-2" points="1136.26 -560.07 555.3 37.24 606.44 37.24 1187.4 -560.07 1136.26 -560.07"/>
  </g>
  <g class="cls-7">
    <polygon class="cls-3" points="685 -6.76 104.04 590.55 155.18 590.55 736.14 -6.76 685 -6.76"/>
    <polygon class="cls-3" points="754.02 -6.76 173.05 590.55 224.19 590.55 805.15 -6.76 754.02 -6.76"/>
    <polygon class="cls-3" points="615.22 -6.76 34.25 590.55 85.39 590.55 666.35 -6.76 615.22 -6.76"/>
    <polygon class="cls-3" points="478.06 -6.76 -102.91 590.55 -51.77 590.55 529.19 -6.76 478.06 -6.76"/>
    <polygon class="cls-3" points="547.07 -6.76 -33.89 590.55 17.24 590.55 598.21 -6.76 547.07 -6.76"/>
    <polygon class="cls-3" points="408.27 -6.76 -172.69 590.55 -121.56 590.55 459.41 -6.76 408.27 -6.76"/>
    <polygon class="cls-3" points="271.11 -6.76 -309.85 590.55 -258.72 590.55 322.25 -6.76 271.11 -6.76"/>
    <polygon class="cls-3" points="340.12 -6.76 -240.84 590.55 -189.7 590.55 391.26 -6.76 340.12 -6.76"/>
    <polygon class="cls-3" points="201.32 -6.76 -379.64 590.55 -328.5 590.55 252.46 -6.76 201.32 -6.76"/>
    <polygon class="cls-3" points="64.16 -6.76 -516.8 590.55 -465.66 590.55 115.3 -6.76 64.16 -6.76"/>
    <polygon class="cls-3" points="133.17 -6.76 -447.79 590.55 -396.65 590.55 184.31 -6.76 133.17 -6.76"/>
    <polygon class="cls-3" points="-5.62 -6.76 -586.59 590.55 -535.45 590.55 45.51 -6.76 -5.62 -6.76"/>
    <polygon class="cls-3" points="1444.64 -6.76 863.68 590.55 914.82 590.55 1495.78 -6.76 1444.64 -6.76"/>
    <polygon class="cls-3" points="1513.65 -6.76 932.69 590.55 983.83 590.55 1564.79 -6.76 1513.65 -6.76"/>
    <polygon class="cls-3" points="1374.85 -6.76 793.89 590.55 845.03 590.55 1425.99 -6.76 1374.85 -6.76"/>
    <polygon class="cls-3" points="1237.69 -6.76 656.73 590.55 707.87 590.55 1288.83 -6.76 1237.69 -6.76"/>
    <polygon class="cls-3" points="1306.71 -6.76 725.74 590.55 776.88 590.55 1357.85 -6.76 1306.71 -6.76"/>
    <polygon class="cls-3" points="1167.91 -6.76 586.94 590.55 638.08 590.55 1219.05 -6.76 1167.91 -6.76"/>
    <polygon class="cls-3" points="1030.75 -6.76 449.78 590.55 500.92 590.55 1081.89 -6.76 1030.75 -6.76"/>
    <polygon class="cls-3" points="1099.76 -6.76 518.8 590.55 569.94 590.55 1150.9 -6.76 1099.76 -6.76"/>
    <polygon class="cls-3" points="960.96 -6.76 380 590.55 431.13 590.55 1012.1 -6.76 960.96 -6.76"/>
    <polygon class="cls-3" points="823.8 -6.76 242.84 590.55 293.98 590.55 874.94 -6.76 823.8 -6.76"/>
    <polygon class="cls-3" points="892.81 -6.76 311.85 590.55 362.99 590.55 943.95 -6.76 892.81 -6.76"/>
  </g>
  <g class="cls-6">
    <polygon class="cls-4" points="1619.94 -6.76 1038.98 590.55 1090.12 590.55 1671.08 -6.76 1619.94 -6.76"/>
    <polygon class="cls-4" points="1550.15 -6.76 969.19 590.55 1020.33 590.55 1601.29 -6.76 1550.15 -6.76"/>
    <polygon class="cls-4" points="1413 -6.76 832.03 590.55 883.17 590.55 1464.13 -6.76 1413 -6.76"/>
    <polygon class="cls-4" points="1482.01 -6.76 901.04 590.55 952.18 590.55 1533.15 -6.76 1482.01 -6.76"/>
    <polygon class="cls-4" points="1343.21 -6.76 762.24 590.55 813.38 590.55 1394.35 -6.76 1343.21 -6.76"/>
    <polygon class="cls-4" points="1206.05 -6.76 625.08 590.55 676.22 590.55 1257.19 -6.76 1206.05 -6.76"/>
    <polygon class="cls-4" points="1275.06 -6.76 694.1 590.55 745.24 590.55 1326.2 -6.76 1275.06 -6.76"/>
    <polygon class="cls-4" points="1136.26 -6.76 555.3 590.55 606.44 590.55 1187.4 -6.76 1136.26 -6.76"/>
  </g>
</svg>