<?xml version="1.0" encoding="UTF-8"?>
<svg id="Layer_1" data-name="Layer 1" xmlns="http://www.w3.org/2000/svg" xmlns:xlink="http://www.w3.org/1999/xlink" viewBox="0 0 1072.17 489.81">
  <defs>
    <style>
      .cls-1 {
        fill: none;
      }

      .cls-2 {
        fill: #e73525;
      }

      .cls-3 {
        clip-path: url(#clippath-1);
      }

      .cls-4 {
        fill: #123c5f;
      }

      .cls-5 {
        clip-path: url(#clippath);
      }
    </style>
    <clipPath id="clippath">
      <rect class="cls-1" x="-1141.89" width="1072.17" height="489.81"/>
    </clipPath>
    <clipPath id="clippath-1">
      <rect class="cls-1" width="1072.17" height="489.81"/>
    </clipPath>
  </defs>
  <g class="cls-5">
    <polygon class="cls-4" points="302.76 -6.76 -278.21 590.55 -227.07 590.55 353.89 -6.76 302.76 -6.76"/>
    <polygon class="cls-4" points="371.77 -6.76 -209.2 590.55 -158.06 590.55 422.91 -6.76 371.77 -6.76"/>
    <polygon class="cls-4" points="232.97 -6.76 -348 590.55 -296.86 590.55 284.11 -6.76 232.97 -6.76"/>
    <polygon class="cls-4" points="95.81 -6.76 -485.15 590.55 -434.02 590.55 146.95 -6.76 95.81 -6.76"/>
    <polygon class="cls-4" points="164.82 -6.76 -416.14 590.55 -365 590.55 215.96 -6.76 164.82 -6.76"/>
    <polygon class="cls-4" points="26.02 -6.76 -554.94 590.55 -503.8 590.55 77.16 -6.76 26.02 -6.76"/>
    <polygon class="cls-4" points="-42.13 -6.76 -623.09 590.55 -571.95 590.55 9.01 -6.76 -42.13 -6.76"/>
  </g>
  <g class="cls-3">
    <polygon class="cls-2" points="685 -6.76 104.04 590.55 155.18 590.55 736.14 -6.76 685 -6.76"/>
    <polygon class="cls-2" points="754.02 -6.76 173.05 590.55 224.19 590.55 805.15 -6.76 754.02 -6.76"/>
    <polygon class="cls-2" points="615.22 -6.76 34.25 590.55 85.39 590.55 666.35 -6.76 615.22 -6.76"/>
    <polygon class="cls-2" points="478.06 -6.76 -102.91 590.55 -51.77 590.55 529.19 -6.76 478.06 -6.76"/>
    <polygon class="cls-2" points="547.07 -6.76 -33.89 590.55 17.24 590.55 598.21 -6.76 547.07 -6.76"/>
    <polygon class="cls-2" points="408.27 -6.76 -172.69 590.55 -121.56 590.55 459.41 -6.76 408.27 -6.76"/>
    <polygon class="cls-2" points="271.11 -6.76 -309.85 590.55 -258.72 590.55 322.25 -6.76 271.11 -6.76"/>
    <polygon class="cls-2" points="340.12 -6.76 -240.84 590.55 -189.7 590.55 391.26 -6.76 340.12 -6.76"/>
    <polygon class="cls-2" points="201.32 -6.76 -379.64 590.55 -328.5 590.55 252.46 -6.76 201.32 -6.76"/>
    <polygon class="cls-2" points="64.16 -6.76 -516.8 590.55 -465.66 590.55 115.3 -6.76 64.16 -6.76"/>
    <polygon class="cls-2" points="133.17 -6.76 -447.79 590.55 -396.65 590.55 184.31 -6.76 133.17 -6.76"/>
    <polygon class="cls-2" points="-5.62 -6.76 -586.59 590.55 -535.45 590.55 45.51 -6.76 -5.62 -6.76"/>
    <polygon class="cls-2" points="1444.64 -6.76 863.68 590.55 914.82 590.55 1495.78 -6.76 1444.64 -6.76"/>
    <polygon class="cls-2" points="1513.65 -6.76 932.69 590.55 983.83 590.55 1564.79 -6.76 1513.65 -6.76"/>
    <polygon class="cls-2" points="1374.85 -6.76 793.89 590.55 845.03 590.55 1425.99 -6.76 1374.85 -6.76"/>
    <polygon class="cls-2" points="1237.69 -6.76 656.73 590.55 707.87 590.55 1288.83 -6.76 1237.69 -6.76"/>
    <polygon class="cls-2" points="1306.71 -6.76 725.74 590.55 776.88 590.55 1357.85 -6.76 1306.71 -6.76"/>
    <polygon class="cls-2" points="1167.91 -6.76 586.94 590.55 638.08 590.55 1219.05 -6.76 1167.91 -6.76"/>
    <polygon class="cls-2" points="1030.75 -6.76 449.78 590.55 500.92 590.55 1081.89 -6.76 1030.75 -6.76"/>
    <polygon class="cls-2" points="1099.76 -6.76 518.8 590.55 569.94 590.55 1150.9 -6.76 1099.76 -6.76"/>
    <polygon class="cls-2" points="960.96 -6.76 380 590.55 431.13 590.55 1012.1 -6.76 960.96 -6.76"/>
    <polygon class="cls-2" points="823.8 -6.76 242.84 590.55 293.98 590.55 874.94 -6.76 823.8 -6.76"/>
    <polygon class="cls-2" points="892.81 -6.76 311.85 590.55 362.99 590.55 943.95 -6.76 892.81 -6.76"/>
  </g>
</svg>