<?xml version="1.0" encoding="UTF-8"?>
<svg id="Layer_1" data-name="Layer 1" xmlns="http://www.w3.org/2000/svg" viewBox="0 0 156.86 302.39">
  <defs>
    <style>
      .cls-1 {
        fill: #c02026;
      }
    </style>
  </defs>
  <path class="cls-1" d="M152.51.11l-56.66-.11v58.25c.07.74.07,1.48,0,2.21-.22,2.69-1.33,5.35-3.51,7.56L1.26,161.43c-.81.85-1.26,1.96-1.26,3.06v63.6L155.61,67.99c.81-.85,1.26-1.92,1.26-3.06V4.46c0-2.4-1.99-4.35-4.35-4.35ZM126.68,46.63c-7.19,0-13.06-5.83-13.06-13.06s5.87-13.1,13.06-13.1,13.1,5.87,13.1,13.1-5.87,13.06-13.1,13.06Z"/>
  <path class="cls-1" d="M156.82,157.78v65.03c0,1.17-.47,2.3-1.3,3.11l-74.08,75.18c-.83.85-1.96,1.28-3.07,1.28s-2.24-.43-3.09-1.28L11.24,238.93l32.73-33.62,29.08,27.65c3.08,2.93,7.93,2.83,10.89-.21l72.88-74.96Z"/>
</svg>