<?xml version="1.0" encoding="UTF-8"?>
<svg id="Layer_1" data-name="Layer 1" xmlns="http://www.w3.org/2000/svg" viewBox="0 0 369 126">
  <defs>
    <style>
      .cls-1 {
        fill: #f8f4ee;
      }

      .cls-2 {
        fill: #c02026;
      }
    </style>
  </defs>
  <path class="cls-1" d="M147.1,14.23v32.02h10.37c.58,0,1.05.47,1.05,1.05v9.13c0,.58-.47,1.05-1.04,1.05h-31.82c-.58,0-1.05-.48-1.05-1.05v-9.13c0-.58.47-1.05,1.05-1.05h10.36V14.21l-10.75-.04-.12-.06c-.34-.17-.55-.53-.55-.91V4.06c0-.58.47-1.05,1.05-1.05h31.81c.58,0,1.05.47,1.05,1.05v9.13c0,.57-.47,1.04-1.04,1.04h-10.38Z"/>
  <path class="cls-1" d="M244.13,25.8c.36-.22.57-.62.57-1.04V4.06c0-.57-.48-1.05-1.05-1.05h-31.81c-.57,0-1.05.48-1.05,1.05v20.7c0,.43.21.82.57,1.04,1.45.94,2.41,2.56,2.41,4.42s-.97,3.5-2.41,4.42c-.36.22-.57.62-.57,1.04v20.75c0,.58.48,1.05,1.05,1.05h31.82c.57,0,1.04-.47,1.04-1.04v-20.76c0-.43-.21-.82-.57-1.04-1.45-.92-2.41-2.56-2.41-4.42s.97-3.49,2.41-4.42ZM233.71,46.52h-11.94v-10.71h11.94v10.71ZM233.71,24.84h-11.94v-10.7h11.94v10.7Z"/>
  <path class="cls-1" d="M184.65,3.03v11.25l-17.72-.04c-.57,0-1.04-.47-1.04-1.05V4.05c0-.57.47-1.04,1.04-1.04l17.72.02Z"/>
  <path class="cls-2" d="M202.38,3.06l-13.54-.03v13.92c.02.18.02.35,0,.53-.05.64-.32,1.28-.84,1.81l-21.77,22.33c-.19.2-.3.47-.3.73v15.2l37.19-38.27c.19-.2.3-.46.3-.73V4.1c0-.57-.48-1.04-1.04-1.04ZM196.21,14.18c-1.72,0-3.12-1.39-3.12-3.12s1.4-3.13,3.12-3.13,3.13,1.4,3.13,3.13-1.4,3.12-3.13,3.12Z"/>
  <path class="cls-2" d="M203.41,40.75v15.54c0,.28-.11.55-.31.74l-17.71,17.97c-.2.2-.47.31-.73.31s-.54-.1-.74-.31l-15.3-14.86,7.82-8.04,6.95,6.61c.74.7,1.9.68,2.6-.05l17.42-17.92Z"/>
  <path class="cls-1" d="M171.29,24.84l-10.19,10.45c-.33.34-.78.52-1.24.52h-4.72v-10.97h16.16Z"/>
  <path class="cls-1" d="M10.88,95.36h-6.45s0-8.07,0-8.07h27.15s0,8.07,0,8.07h-6.45c-1.31,0-2.38,1.06-2.38,2.38v24.87s-9.49,0-9.49,0v-24.87c0-1.31-1.06-2.38-2.38-2.38Z"/>
  <path class="cls-1" d="M65.22,122.61h-9.59s-6-11.81-6-11.81h-3.89v11.81s-9.49,0-9.49,0v-35.32s20.69,0,20.69,0c4.64,0,6.86,2.22,6.86,6.86v9.18c0,3.89-1.56,6.05-4.79,6.71l6.21,12.56ZM53.42,103.33c.71,0,.91-.2.91-.91v-6.56c0-.71-.2-.91-.91-.91h-7.67v8.38h7.67Z"/>
  <path class="cls-1" d="M69.08,115.74v-28.46s9.49,0,9.49,0v26.24c0,.61.3.91.91.91h6.56c.61,0,.91-.3.91-.91v-26.24s9.49,0,9.49,0v28.46c0,4.44-2.42,6.86-6.86,6.86h-13.62c-4.44,0-6.86-2.42-6.86-6.86Z"/>
  <path class="cls-1" d="M102.48,115.74v-21.6c0-4.64,2.32-6.86,6.96-6.86h13.47c4.64,0,6.76,2.22,6.76,6.86v6.61s-9.49,0-9.49,0v-4.69c0-.71-.2-.91-.91-.91h-6.41c-.71,0-.91.2-.91.91v17.76c0,.71.2.91.91.91h6.41c.71,0,.91-.2.91-.91v-4.69s9.49,0,9.49,0v6.61c0,4.64-2.22,6.86-6.86,6.86h-13.47c-4.64,0-6.86-2.22-6.86-6.86Z"/>
  <path class="cls-1" d="M155.31,122.61l-6-13.82-5.1,7.06v6.76s-9.28,0-9.28,0v-35.32s9.28,0,9.28,0v16.1s10.24-16.1,10.24-16.1h10.34s-8.28,11.51-8.28,11.51c-.87,1.21-1.02,2.79-.39,4.14l9.17,19.66h-9.99Z"/>
  <path class="cls-1" d="M178.74,115.74v-21.6c0-4.64,2.32-6.86,6.96-6.86h13.47c4.64,0,6.76,2.22,6.76,6.86v6.61s-9.49,0-9.49,0v-4.69c0-.71-.2-.91-.91-.91h-6.41c-.71,0-.91.2-.91.91v17.76c0,.71.2.91.91.91h6.41c.71,0,.91-.2.91-.91v-4.69s9.49,0,9.49,0v6.61c0,4.64-2.22,6.86-6.86,6.86h-13.47c-4.64,0-6.86-2.22-6.86-6.86Z"/>
  <path class="cls-1" d="M210.77,87.29h24.82s0,7.87,0,7.87h-15.34v5.5h12.16s0,7.77,0,7.77h-12.16v6.31h15.34s0,7.87,0,7.87h-24.82s0-35.32,0-35.32Z"/>
  <path class="cls-1" d="M240.08,87.29h9.43s11.55,18.77,11.55,18.77v-18.77s9.18,0,9.18,0v35.32s-8.43,0-8.43,0l-12.56-20.23v20.23s-9.18,0-9.18,0v-35.32Z"/>
  <path class="cls-1" d="M281.14,95.36h-6.45s0-8.07,0-8.07h27.15s0,8.07,0,8.07h-6.45c-1.31,0-2.38,1.06-2.38,2.38v24.87s-9.49,0-9.49,0v-24.87c0-1.31-1.06-2.38-2.38-2.38Z"/>
  <path class="cls-1" d="M306.24,87.29h24.82s0,7.87,0,7.87h-15.34v5.5h12.16s0,7.77,0,7.77h-12.16v6.31h15.34s0,7.87,0,7.87h-24.82s0-35.32,0-35.32Z"/>
  <path class="cls-1" d="M364.66,122.61h-9.59s-6-11.81-6-11.81h-3.89v11.81s-9.49,0-9.49,0v-35.32s20.69,0,20.69,0c4.64,0,6.86,2.22,6.86,6.86v9.18c0,3.89-1.56,6.05-4.79,6.71l6.21,12.56ZM352.85,103.33c.71,0,.91-.2.91-.91v-6.56c0-.71-.2-.91-.91-.91h-7.67v8.38h7.67Z"/>
</svg>