<?xml version="1.0" encoding="UTF-8"?>
<svg id="Layer_1" data-name="Layer 1" xmlns="http://www.w3.org/2000/svg" viewBox="0 0 369 63">
  <defs>
    <style>
      .cls-1 {
        fill: #282020;
      }

      .cls-2 {
        fill: #c02026;
      }
    </style>
  </defs>
  <g>
    <path class="cls-1" d="M20.55,11.8v25.31h8.2c.46,0,.83.37.83.83v7.22c0,.46-.37.83-.82.83H3.6c-.46,0-.83-.38-.83-.83v-7.22c0-.46.37-.83.83-.83h8.19V11.78l-8.49-.03-.09-.05c-.27-.13-.44-.42-.44-.72V3.76c0-.46.37-.83.83-.83h25.14c.46,0,.83.37.83.83v7.22c0,.45-.37.82-.82.82h-8.21Z"/>
    <path class="cls-1" d="M97.23,20.94c.29-.18.45-.49.45-.82V3.76c0-.45-.38-.83-.83-.83h-25.14c-.45,0-.83.38-.83.83v16.36c0,.34.17.65.45.82,1.14.74,1.91,2.02,1.91,3.49s-.76,2.76-1.91,3.49c-.29.18-.45.49-.45.82v16.4c0,.46.38.83.83.83h25.15c.45,0,.82-.37.82-.82v-16.41c0-.34-.17-.65-.45-.82-1.14-.73-1.91-2.02-1.91-3.49s.76-2.76,1.91-3.49ZM89,37.32h-9.43v-8.47h9.43v8.47ZM89,20.18h-9.43v-8.46h9.43v8.46Z"/>
    <g>
      <path class="cls-1" d="M50.23,2.94v8.89l-14-.03c-.45,0-.82-.37-.82-.83V3.75c0-.45.37-.82.82-.82l14,.02Z"/>
      <path class="cls-2" d="M64.24,2.97l-10.7-.02v11c.01.14.01.28,0,.42-.04.51-.25,1.01-.66,1.43l-17.21,17.65c-.15.16-.24.37-.24.58v12.01l29.4-30.25c.15-.16.24-.36.24-.58V3.79c0-.45-.38-.82-.82-.82ZM59.36,11.76c-1.36,0-2.47-1.1-2.47-2.47s1.11-2.47,2.47-2.47,2.47,1.11,2.47,2.47-1.11,2.47-2.47,2.47Z"/>
      <path class="cls-2" d="M65.05,32.76v12.29c0,.22-.09.44-.25.59l-13.99,14.2c-.16.16-.37.24-.58.24s-.42-.08-.58-.24l-12.1-11.75,6.18-6.35,5.49,5.22c.58.55,1.5.53,2.06-.04l13.77-14.16Z"/>
    </g>
    <path class="cls-1" d="M39.67,20.18l-8.06,8.26c-.26.27-.61.41-.98.41h-3.73v-8.67h12.77Z"/>
  </g>
  <g>
    <path class="cls-1" d="M113.79,17.64h-4.6s0-5.76,0-5.76h19.37s0,5.76,0,5.76h-4.6c-.94,0-1.7.76-1.7,1.7v17.75s-6.77,0-6.77,0v-17.75c0-.94-.76-1.7-1.7-1.7Z"/>
    <path class="cls-1" d="M152.57,37.09h-6.84s-4.28-8.42-4.28-8.42h-2.77v8.42s-6.77,0-6.77,0V11.88s14.76,0,14.76,0c3.31,0,4.9,1.58,4.9,4.9v6.55c0,2.77-1.12,4.32-3.42,4.79l4.43,8.96ZM144.14,23.33c.5,0,.65-.14.65-.65v-4.68c0-.5-.14-.65-.65-.65h-5.47v5.98h5.47Z"/>
    <path class="cls-1" d="M155.32,32.19V11.88s6.77,0,6.77,0v18.72c0,.43.22.65.65.65h4.68c.43,0,.65-.22.65-.65V11.88s6.77,0,6.77,0v20.31c0,3.17-1.73,4.9-4.9,4.9h-9.72c-3.17,0-4.9-1.73-4.9-4.9Z"/>
    <path class="cls-1" d="M179.15,32.19v-15.41c0-3.31,1.66-4.9,4.97-4.9h9.61c3.31,0,4.82,1.58,4.82,4.9v4.72s-6.77,0-6.77,0v-3.35c0-.5-.14-.65-.65-.65h-4.57c-.5,0-.65.14-.65.65v12.67c0,.5.14.65.65.65h4.57c.5,0,.65-.14.65-.65v-3.35s6.77,0,6.77,0v4.72c0,3.31-1.58,4.9-4.9,4.9h-9.61c-3.31,0-4.9-1.58-4.9-4.9Z"/>
    <path class="cls-1" d="M216.85,37.09l-4.28-9.86-3.64,5.04v4.82s-6.62,0-6.62,0V11.88s6.62,0,6.62,0v11.48s7.31-11.48,7.31-11.48h7.38s-5.91,8.22-5.91,8.22c-.62.86-.73,1.99-.28,2.96l6.54,14.03h-7.13Z"/>
    <path class="cls-1" d="M233.57,32.19v-15.41c0-3.31,1.66-4.9,4.97-4.9h9.61c3.31,0,4.82,1.58,4.82,4.9v4.72s-6.77,0-6.77,0v-3.35c0-.5-.14-.65-.65-.65h-4.57c-.5,0-.65.14-.65.65v12.67c0,.5.14.65.65.65h4.57c.5,0,.65-.14.65-.65v-3.35s6.77,0,6.77,0v4.72c0,3.31-1.58,4.9-4.9,4.9h-9.61c-3.31,0-4.9-1.58-4.9-4.9Z"/>
    <path class="cls-1" d="M256.42,11.88h17.71s0,5.62,0,5.62h-10.95v3.92h8.68s0,5.54,0,5.54h-8.68v4.5h10.95s0,5.62,0,5.62h-17.71s0-25.2,0-25.2Z"/>
    <path class="cls-1" d="M277.34,11.88h6.73s8.24,13.39,8.24,13.39v-13.39s6.55,0,6.55,0v25.2s-6.01,0-6.01,0l-8.96-14.44v14.44s-6.55,0-6.55,0V11.88Z"/>
    <path class="cls-1" d="M306.63,17.64h-4.6s0-5.76,0-5.76h19.37s0,5.76,0,5.76h-4.6c-.94,0-1.7.76-1.7,1.7v17.75s-6.77,0-6.77,0v-17.75c0-.94-.76-1.7-1.7-1.7Z"/>
    <path class="cls-1" d="M324.54,11.88h17.71s0,5.62,0,5.62h-10.95v3.92h8.68s0,5.54,0,5.54h-8.68v4.5h10.95s0,5.62,0,5.62h-17.71s0-25.2,0-25.2Z"/>
    <path class="cls-1" d="M366.23,37.08h-6.84s-4.28-8.42-4.28-8.42h-2.77v8.42s-6.77,0-6.77,0V11.88s14.76,0,14.76,0c3.31,0,4.9,1.58,4.9,4.9v6.55c0,2.77-1.12,4.32-3.42,4.79l4.43,8.96ZM357.8,23.33c.5,0,.65-.14.65-.65v-4.68c0-.5-.14-.65-.65-.65h-5.47v5.98h5.47Z"/>
  </g>
</svg>