<?xml version="1.0" encoding="UTF-8"?>
<svg id="Layer_1" data-name="Layer 1" xmlns="http://www.w3.org/2000/svg" viewBox="0 0 189 117">
  <defs>
    <style>
      .cls-1 {
        fill: #f8f4ee;
      }
    </style>
  </defs>
  <path class="cls-1" d="M37.12,20.31v49.06h15.89c.9,0,1.61.72,1.61,1.61v13.99c0,.9-.72,1.61-1.6,1.61H4.28c-.9,0-1.61-.73-1.61-1.61v-13.99c0-.9.72-1.61,1.61-1.61h15.88V20.27l-16.46-.07-.18-.1c-.52-.26-.85-.81-.85-1.4V4.72c0-.9.72-1.61,1.61-1.61h48.74c.9,0,1.61.72,1.61,1.61v13.99c0,.88-.72,1.6-1.6,1.6h-15.91Z"/>
  <path class="cls-1" d="M185.77,38.04c.55-.34.88-.94.88-1.6V4.72c0-.88-.73-1.61-1.61-1.61h-48.74c-.88,0-1.61.73-1.61,1.61v31.72c0,.65.33,1.25.88,1.6,2.21,1.43,3.7,3.92,3.7,6.77s-1.48,5.36-3.7,6.77c-.55.34-.88.94-.88,1.6v31.78c0,.9.73,1.61,1.61,1.61h48.75c.88,0,1.6-.72,1.6-1.6v-31.8c0-.65-.33-1.25-.88-1.6-2.21-1.42-3.7-3.92-3.7-6.77s1.48-5.34,3.7-6.77ZM169.81,69.77h-18.29v-16.41h18.29v16.41ZM169.81,36.56h-18.29v-16.4h18.29v16.4Z"/>
  <g>
    <path class="cls-1" d="M94.65,3.14v17.23l-27.14-.07c-.88,0-1.6-.72-1.6-1.61V4.71c0-.88.72-1.6,1.6-1.6l27.14.03Z"/>
    <path class="cls-1" d="M121.81,3.2l-20.75-.04v21.33c.03.27.03.54,0,.81-.08.99-.49,1.96-1.28,2.77l-33.35,34.2c-.3.31-.46.72-.46,1.12v23.29l56.98-58.63c.3-.31.46-.7.46-1.12V4.8c0-.88-.73-1.59-1.59-1.59ZM112.35,20.24c-2.63,0-4.78-2.13-4.78-4.78s2.15-4.8,4.78-4.8,4.8,2.15,4.8,4.8-2.15,4.78-4.8,4.78Z"/>
    <path class="cls-1" d="M123.39,60.94v23.81c0,.43-.17.84-.48,1.14l-27.13,27.53c-.3.31-.72.47-1.12.47s-.82-.16-1.13-.47l-23.45-22.77,11.98-12.31,10.65,10.12c1.13,1.07,2.9,1.04,3.99-.08l26.69-27.45Z"/>
  </g>
  <path class="cls-1" d="M74.18,36.56l-15.62,16.01c-.5.52-1.19.8-1.91.8h-7.23v-16.8h24.75Z"/>
</svg>